<svg id="Capa_1" enable-background="new 0 0 512 512" height="512" viewBox="0 0 512 512" width="512" xmlns="http://www.w3.org/2000/svg"><g><g><circle cx="59.902" cy="348.728" fill="#cbafea" r="52.025"/></g><g><circle cx="452.097" cy="348.728" fill="#cbafea" r="52.025"/></g><g><path d="m245.393 277.213-56.288-56.288c-5.858-5.858-5.858-15.355 0-21.213l56.288-56.288c5.858-5.858 15.355-5.858 21.213 0l56.288 56.288c5.858 5.858 5.858 15.355 0 21.213l-56.288 56.288c-5.858 5.858-15.355 5.858-21.213 0z" fill="#cbafea"/></g><g><path d="m322.909 199.726-12.769-12.769c.73 4.579-.654 9.431-4.184 12.961l-66.595 66.595c-.803.803-1.679 1.485-2.6 2.067l8.647 8.647c5.85 5.85 15.334 5.85 21.184 0l56.317-56.317c5.849-5.849 5.849-15.334 0-21.184z" fill="#bc95e2"/></g><g><path d="m96.927 257.175h-74.05c-8.284 0-15-6.716-15-15v-56.05c0-8.284 6.716-15 15-15h74.049c8.284 0 15 6.716 15 15v56.05c.001 8.284-6.715 15-14.999 15z" fill="#dd636e"/></g><g><path d="m489.122 257.175h-74.049c-8.284 0-15-6.716-15-15v-56.05c0-8.284 6.716-15 15-15h74.049c8.284 0 15 6.716 15 15v56.05c0 8.284-6.716 15-15 15z" fill="#dd636e"/></g><g><path d="m313.026 504.51h-114.053c-8.284 0-15-6.716-15-15v-45.942c0-8.284 6.716-15 15-15h114.053c8.284 0 15 6.716 15 15v45.942c0 8.285-6.716 15-15 15z" fill="#cbafea"/></g><g><path d="m313.026 396.387h-114.053c-8.284 0-15-6.716-15-15v-45.942c0-8.284 6.716-15 15-15h114.053c8.284 0 15 6.716 15 15v45.942c0 8.284-6.716 15-15 15z" fill="#ffe07d"/></g><g><ellipse cx="256" cy="56.123" fill="#9dc6fb" rx="106.887" ry="48.633"/></g><g><path d="m85.366 303.366c4.235 7.528 6.662 16.211 6.662 25.464 0 28.732-23.292 52.025-52.025 52.025-9.253 0-17.936-2.427-25.464-6.662 8.916 15.848 25.883 26.561 45.362 26.561 28.732 0 52.025-23.292 52.025-52.025.001-19.479-10.712-36.447-26.56-45.363z" fill="#bc95e2"/></g><g><path d="m477.561 303.366c4.235 7.528 6.662 16.211 6.662 25.464 0 28.732-23.292 52.025-52.025 52.025-9.253 0-17.936-2.427-25.464-6.662 8.916 15.848 25.884 26.561 45.363 26.561 28.732 0 52.025-23.292 52.025-52.025 0-19.479-10.712-36.447-26.561-45.363z" fill="#bc95e2"/></g><g><path d="m96.947 171.125h-4.919v51.172c0 8.273-6.706 14.979-14.979 14.979h-69.172v4.919c0 8.273 6.706 14.979 14.979 14.979h74.091c8.273 0 14.979-6.706 14.979-14.979v-56.091c.001-8.273-6.706-14.979-14.979-14.979z" fill="#da4a54"/></g><g><path d="m489.142 171.125h-4.919v51.172c0 8.273-6.707 14.979-14.979 14.979h-69.172v4.919c0 8.273 6.707 14.979 14.979 14.979h74.091c8.273 0 14.979-6.706 14.979-14.979v-56.091c.001-8.273-6.706-14.979-14.979-14.979z" fill="#da4a54"/></g><g><path d="m313.047 428.569h-4.919v41.064c0 8.273-6.707 14.979-14.979 14.979h-109.176v4.919c0 8.273 6.706 14.979 14.979 14.979h114.094c8.273 0 14.979-6.706 14.979-14.979v-45.983c.001-8.273-6.705-14.979-14.978-14.979z" fill="#bc95e2"/></g><g><path d="m313.047 320.445h-4.919v41.064c0 8.273-6.707 14.979-14.979 14.979h-109.176v4.919c0 8.273 6.706 14.979 14.979 14.979h114.094c8.273 0 14.979-6.706 14.979-14.979v-45.983c.001-8.272-6.705-14.979-14.978-14.979z" fill="#ffd064"/></g><g><path d="m340.876 26.564c1.383 3.122 2.112 6.352 2.112 9.66 0 26.859-47.855 48.633-106.887 48.633-34.592 0-65.34-7.479-84.876-19.075 9.847 22.231 53.012 38.973 104.774 38.973 59.032 0 106.887-21.774 106.887-48.633 0-11.119-8.208-21.365-22.01-29.558z" fill="#80b4fb"/></g><path d="m489.143 264.664c12.389 0 22.469-10.079 22.469-22.469v-56.091c0-12.39-10.08-22.469-22.469-22.469h-74.091c-12.389 0-22.469 10.079-22.469 22.469v16.724h-59.098c-1.102-3.12-2.871-5.989-5.28-8.398l-24.978-24.978c-2.926-2.925-7.667-2.925-10.593 0-2.925 2.925-2.925 7.667 0 10.592l24.979 24.979c1.414 1.415 2.193 3.295 2.193 5.296 0 2-.779 3.881-2.194 5.296l-56.317 56.317c-1.414 1.415-3.295 2.194-5.295 2.194s-3.881-.779-5.295-2.194l-56.318-56.317c-1.414-1.415-2.193-3.295-2.193-5.295 0-2.001.779-3.881 2.194-5.296l56.317-56.317c1.414-1.415 3.295-2.194 5.295-2.194s3.881.779 5.295 2.194l5.78 5.78c2.926 2.925 7.667 2.925 10.593 0 2.925-2.925 2.925-7.667 0-10.592l-5.78-5.78c-2.409-2.409-5.278-4.179-8.399-5.28v-20.715c26.796-.816 51.845-5.986 71.193-14.789 23.017-10.473 35.694-25.107 35.694-41.206s-12.677-30.733-35.694-41.206c-21.142-9.622-49.085-14.919-78.682-14.919-20.158 0-39.922 2.503-57.158 7.24-3.989 1.096-6.333 5.218-5.238 9.207 1.096 3.988 5.215 6.335 9.207 5.237 15.961-4.386 34.354-6.704 53.189-6.704 58.576 0 99.397 21.683 99.397 41.143s-40.821 41.144-99.397 41.144-99.397-21.683-99.397-41.144c0-7.78 6.354-15.896 17.891-22.853 3.542-2.136 4.682-6.739 2.546-10.281-2.136-3.543-6.739-4.682-10.282-2.547-16.443 9.916-25.135 22.253-25.135 35.681 0 16.099 12.677 30.733 35.694 41.206 19.348 8.803 44.397 13.973 71.193 14.789v20.715c-3.12 1.102-5.989 2.871-8.399 5.28l-56.316 56.316c-2.409 2.409-4.179 5.278-5.281 8.399h-59.098v-16.724c0-12.39-10.08-22.469-22.469-22.469h-74.09c-12.389 0-22.469 10.079-22.469 22.469v56.091c0 12.39 10.08 22.469 22.469 22.469h29.555v25.038c-29.291 3.697-52.024 28.748-52.024 59.027 0 7.212 1.278 14.264 3.797 20.96 1.458 3.873 5.777 5.828 9.648 4.372 3.872-1.457 5.829-5.776 4.372-9.647-1.883-5.005-2.838-10.282-2.838-15.685 0-24.557 19.978-44.535 44.534-44.535 24.557 0 44.535 19.978 44.535 44.535 0 24.556-19.978 44.535-44.535 44.535-8.64 0-17.017-2.475-24.224-7.158-3.467-2.253-8.108-1.268-10.361 2.201-2.254 3.469-1.269 8.107 2.2 10.361 9.643 6.264 20.841 9.575 32.385 9.575 32.816 0 59.515-26.698 59.515-59.514 0-30.278-22.734-55.33-52.025-59.027v-25.038h29.556c12.389 0 22.469-10.079 22.469-22.469v-24.387h59.098c1.102 3.12 2.871 5.99 5.28 8.399l56.317 56.317c2.409 2.409 5.278 4.179 8.399 5.28v25.152h-49.558c-12.389 0-22.469 10.079-22.469 22.469v45.983c0 12.39 10.08 22.469 22.469 22.469h49.558v17.202h-49.558c-12.389 0-22.469 10.079-22.469 22.469v45.983c0 12.39 10.08 22.469 22.469 22.469h114.095c12.389 0 22.469-10.079 22.469-22.469v-45.983c0-12.39-10.08-22.469-22.469-22.469h-49.558v-17.202h49.558c12.389 0 22.469-10.079 22.469-22.469v-45.983c0-12.39-10.08-22.469-22.469-22.469h-49.558v-25.152c3.12-1.102 5.989-2.871 8.399-5.28l56.316-56.316c2.409-2.409 4.179-5.279 5.281-8.399h59.098v24.387c0 12.39 10.08 22.469 22.469 22.469h29.556v25.038c-29.291 3.697-52.025 28.748-52.025 59.027 0 32.816 26.699 59.514 59.515 59.514s59.515-26.698 59.515-59.514c0-30.278-22.734-55.33-52.025-59.027v-25.038h29.555zm-384.706-22.469c0 4.13-3.36 7.49-7.49 7.49h-74.09c-4.13 0-7.49-3.36-7.49-7.49v-56.091c0-4.13 3.36-7.49 7.49-7.49h74.09c4.13 0 7.49 3.36 7.49 7.49zm216.099 201.353v45.983c0 4.13-3.36 7.49-7.49 7.49h-114.094c-4.13 0-7.49-3.36-7.49-7.49v-45.983c0-4.13 3.36-7.49 7.49-7.49h114.095c4.13 0 7.489 3.36 7.489 7.49zm0-108.123v45.983c0 4.13-3.36 7.49-7.49 7.49h-114.094c-4.13 0-7.49-3.36-7.49-7.49v-45.983c0-4.13 3.36-7.49 7.49-7.49h114.095c4.13 0 7.489 3.36 7.489 7.49zm176.097 13.304c0 24.556-19.978 44.535-44.535 44.535s-44.535-19.978-44.535-44.535 19.978-44.535 44.535-44.535 44.535 19.978 44.535 44.535zm-89.071-106.534v-56.091c0-4.13 3.36-7.49 7.49-7.49h74.091c4.13 0 7.49 3.36 7.49 7.49v56.091c0 4.13-3.36 7.49-7.49 7.49h-74.091c-4.13 0-7.49-3.36-7.49-7.49z"/></g></svg>