<?xml version="1.0" encoding="UTF-8"?>
<svg xmlns="http://www.w3.org/2000/svg" viewBox="0 0 512 512" width="512" height="512"><g id="Filled_outline" data-name="Filled outline"><path d="M410.078,176.066a31.877,31.877,0,0,0-21.16,6.253A8.235,8.235,0,0,1,384.01,184h0a8.01,8.01,0,0,1-8.01-8.01V112a24,24,0,0,0-24-24H288.01A8.01,8.01,0,0,1,280,79.99h0a8.235,8.235,0,0,1,1.681-4.908,32,32,0,1,0-51.352.014A8.2,8.2,0,0,1,232,79.987v0A8.01,8.01,0,0,1,223.99,88H160a24,24,0,0,0-24,24v51.9A20.1,20.1,0,0,0,156.1,184h.162a20.826,20.826,0,0,0,10.937-3.235,32,32,0,1,1-.1,54.41A20.493,20.493,0,0,0,156.274,232H156.1a20.1,20.1,0,0,0-20.1,20.1V312a16,16,0,0,0,16,16h59.894A20.106,20.106,0,0,0,232,307.894v-.161a20.826,20.826,0,0,0-3.235-10.937,32,32,0,1,1,54.41.1A20.5,20.5,0,0,0,280,307.727v.167A20.106,20.106,0,0,0,300.106,328H352a24,24,0,0,0,24-24V240.01a8.01,8.01,0,0,1,8.01-8.01h0a8.2,8.2,0,0,1,4.891,1.671,32,32,0,1,0,21.174-57.6Z" style="fill:#e25740"/><path d="M359.047,371.523A109.153,109.153,0,0,0,310.233,360h0a109.146,109.146,0,0,0-56.158,15.555l-.742.445H192a24,24,0,0,0-24,24h0a24,24,0,0,0,24,24H176L85.033,382.333A26.144,26.144,0,0,0,48,406.1v1.739a26.142,26.142,0,0,0,14.453,23.384l93.277,46.639A96,96,0,0,0,198.663,488H368V376Z" style="fill:#fdc8a2"/><rect x="368" y="376" width="96" height="112" style="fill:#426887"/><circle cx="408" cy="448" r="16" style="fill:#35546d"/><path d="M369.888,368H464v16H376v96h88v16H319V480h41V380.944l-4.531-2.265a101.15,101.15,0,0,0-97.278,3.736l-.739.443A8,8,0,0,1,253.333,384H192a16,16,0,0,0,0,32h64a8,8,0,0,1,0,16H176a8,8,0,0,1-3.332-.727L81.7,389.606A18.144,18.144,0,0,0,56,406.1v1.739a18.045,18.045,0,0,0,10.03,16.229l93.278,46.639A88.456,88.456,0,0,0,198.663,480H304v16H198.663a104.543,104.543,0,0,1-46.511-10.979L58.875,438.382A33.958,33.958,0,0,1,40,407.842V406.1A34.144,34.144,0,0,1,88.365,375.06l72.749,33.322A32.011,32.011,0,0,1,192,368h59.133a117.151,117.151,0,0,1,111.492-3.632ZM392,448a16,16,0,1,0,16-16A16.019,16.019,0,0,0,392,448Zm16-200A40.145,40.145,0,0,0,437.24,235.3a40,40,0,0,0-53.1-59.394,1.043,1.043,0,0,1-.141.089V112a32.036,32.036,0,0,0-32-32l-64,.043a.656.656,0,0,1,.1-.184A39.994,39.994,0,0,0,258.8,16.1a39.656,39.656,0,0,0-30.1,10.664A40.145,40.145,0,0,0,216,56a39.657,39.657,0,0,0,7.915,23.876.594.594,0,0,1,.077.128l0,0H160a31.952,31.952,0,0,0-29.482,19.542l14.736,6.232A15.983,15.983,0,0,1,160,96h63.99a16.008,16.008,0,0,0,12.753-25.686,24,24,0,1,1,38.522-.009A16.007,16.007,0,0,0,288.01,96H352a16.019,16.019,0,0,1,16,16v63.99a16.006,16.006,0,0,0,25.7,12.744,23.721,23.721,0,0,1,15.876-4.684,24,24,0,1,1-15.885,43.208A16.008,16.008,0,0,0,368,240.01V304a16.019,16.019,0,0,1-16,16H300.106A12.12,12.12,0,0,1,288,307.894v-.167a12.517,12.517,0,0,1,1.964-6.6,40,40,0,1,0-68-.12A12.878,12.878,0,0,1,224,307.733v.161A12.12,12.12,0,0,1,211.894,320H152a8.009,8.009,0,0,1-8-8v-59.9A12.119,12.119,0,0,1,156.1,240h.169a12.519,12.519,0,0,1,6.6,1.963,40,40,0,1,0,.121-68A12.886,12.886,0,0,1,156.267,176H156.1A12.119,12.119,0,0,1,144,163.9V123H128v40.9A28.137,28.137,0,0,0,156.1,192h.162a28.848,28.848,0,0,0,15.146-4.432,24,24,0,1,1-.073,40.819A28.487,28.487,0,0,0,156.274,224H156.1a28.137,28.137,0,0,0-28.1,28.1V312a24.027,24.027,0,0,0,24,24h59.894A28.137,28.137,0,0,0,240,307.894v-.161a28.846,28.846,0,0,0-4.432-15.145,24,24,0,1,1,40.819.072A28.5,28.5,0,0,0,272,307.727v.167A28.137,28.137,0,0,0,300.106,336H352a32.036,32.036,0,0,0,32-32l-.035-64a.532.532,0,0,1,.158.089A39.66,39.66,0,0,0,408,248ZM65,216V200H48v16Zm16,0h39V200H81Zm383,0h32V200H464ZM409.635,361.175l10.791-11.813-20.364-18.6-10.791,11.812ZM85.421,40.234,74.579,52l40,36.863L125.421,77.1ZM74.251,29.94,61.421,18.117,50.579,29.883,63.408,41.706Zm371.406-.283L434.343,18.343l-48,48,11.314,11.314Zm-320,320-11.314-11.314-24,24,11.314,11.314Zm335.222-46.019,18.46,7.822,6.243-14.732L467.121,288.9Zm-9.758-21.513-48-20.339-6.242,14.733,48,20.338Zm-336-142.373-64-27.118-6.242,14.732,64,27.118Zm361.8-31.137,6.154,14.77,16-6.667-6.154-14.77Zm-16,6.667-64,26.666,6.154,14.77,64-26.666ZM115.083,276.715l-6.166-14.764-38.068,15.9,6.167,14.763ZM61.589,299.058l-6.167-14.764-15.57,6.5,6.167,14.764ZM191.093,66.3l-24-46-14.186,7.4,24,46ZM336.728,12.667l-24,52.363L327.272,71.7l24-52.363ZM352,144V132a20.023,20.023,0,0,0-20-20H320v16h12a4,4,0,0,1,4,4v12Z"/></g></svg>
