<svg height="512" viewBox="0 0 60 60" width="512" xmlns="http://www.w3.org/2000/svg"><g id="013---Pocket-Knife" fill="none"><g id="Icons"><path id="Shape" d="m58.82 39.23c-1.4043869-3.4259618-3.474322-6.5393617-6.09-9.16l-13.73-13.73v11.32c7.37 7.34 10.77 11.6 17.23 14.16.7395236.2884144 1.5796213.112188 2.1409047-.4490953.5612833-.5612834.7375097-1.4013811.4490953-2.1409047z" fill="#7f8e94"/><path id="Shape" d="m58.71 10.71c-1.06 1.06-1.18 1.29-1.71 1.29h-18c.0865642-1.3373351.0127053-2.68022469-.22-4h18.22c.52 0 .66.25 1.7 1.29.1906411.18643008.298931.44127725.3008087.70791684.0018778.26663956-.1028122.52298666-.2908087.71208316z" fill="#7f8e94"/><path id="Shape" d="m58.71 10.71c-1.06 1.06-1.18 1.29-1.71 1.29h-3c.52 0 .64-.23 1.7-1.29.1893127-.1877666.2957983-.4433625.2957983-.71 0-.26663754-.1064856-.5222334-.2957983-.71-1.03-1.04-1.17-1.29-1.7-1.29h3c.52 0 .66.25 1.7 1.29.1906411.18643008.298931.44127725.3008087.70791684.0018778.26663956-.1028122.52298666-.2908087.71208316z" fill="#545c60"/><path id="Shape" d="m56.23 41.82c-.53-.21-1-.45-1.56-.7.3709618-.5613017.4348429-1.2715095.17-1.89-1.4043869-3.4259618-3.474322-6.5393617-6.09-9.16l-9.75-9.75v-4l13.73 13.75c2.615678 2.6206383 4.6856131 5.7340382 6.09 9.16.2884144.7395236.112188 1.5796213-.4490953 2.1409047-.5612834.5612833-1.4013811.7375097-2.1409047.4490953z" fill="#545c60"/><path id="Shape" d="m39 10v40c-.0031645 2.6402156-1.1654831 5.145878-3.1791623 6.8534625s-4.6755921 2.4448414-7.2808377 2.0165375l-.46-.1c-2.5897169-.5917254-4.7857384-2.2973021-6-4.66-.5572411-.9523591-.9049746-2.0126055-1.02-3.11-.14-.55 0-41.76 0-41.86.2062091-2.3428054 1.3447627-4.50461614 3.16-6 .06-.06.35-.27.41-.32 1.1302081-.87690556 2.4596247-1.46088701 3.87-1.7 2.6131489-.44170336 5.2881439.29078495 7.3117216 2.00215352 2.0235777 1.71136856 3.1900101 4.22763026 3.1882784 6.87784648z" fill="#f44335"/><path id="Shape" d="m39 10v40c.0017317 2.6502162-1.1647007 5.1664779-3.1882784 6.8778465-2.0235777 1.7113685-4.6985727 2.4438569-7.3117216 2.0021535 4.3324952-.7323244 7.5028707-4.486049 7.5-8.88v-40c.0045257-4.38756916-3.1554552-8.13899026-7.48-8.88 2.6100622-.43513409 5.2793631.30037911 7.2981785 2.01097849 2.0188155 1.71059937 3.1825633 4.22293655 3.1818215 6.86902151z" fill="#c81e1e"/><g fill="#7f8e94"><path id="Shape" d="m21.06 51h-15.06c-1.32608245 0-2.59785201-.5267842-3.53553391-1.4644661-.93768189-.9376819-1.46446609-2.2094515-1.46446609-3.5355339 0-.5522847.44771525-1 1-1h3c.55228475 0 1 .4477153 1 1s.44771525 1 1 1h4c.5522847 0 1-.4477153 1-1s.4477153-1 1-1h8c0 3 0 5.6.06 6z"/><path id="Shape" d="m21 31.69v11.31c-14.51-14.51-15.16-14.79-17.06-18.29-1.99398808-3.3579172-3.01211707-7.2053367-2.94-11.11.01066902-.4658227.21779315-.9054194.57021671-1.2102182.35242356-.3047987.81728891-.4463821 1.27978329-.3897818.77303912.0828306 1.38666001.6881593 1.48 1.46l.1.94c.05283556.4623627.41763729.8271644.88.88l1.47.17c.46567739.0537391.83152602.4237451.88.89l.16 1.45c.04935162.4695763.42042368.8406484.89.89l1.45.15c.4695763.0493516.8406484.4204237.89.89l.16 1.46c.048474.4662549.4143226.8362609.88.89l1.47.16c.4623627.0528356.8271644.4176373.88.88l.17 1.47c.0528356.4623627.4176373.8271644.88.88l1.47.17c.4623627.0528356.8271644.4176373.88.88l.26 2.27z"/><circle id="Oval" cx="30" cy="10" r="5"/></g><path id="Shape" d="m34 46h-2v-2c0-.5522847-.4477153-1-1-1h-2c-.5522847 0-1 .4477153-1 1v2h-2c-.5522847 0-1 .4477153-1 1v2c0 .5522847.4477153 1 1 1h2v2c0 .5522847.4477153 1 1 1h2c.5522847 0 1-.4477153 1-1v-2h2c.5522847 0 1-.4477153 1-1v-2c0-.5522847-.4477153-1-1-1z" fill="#f5f5f5"/></g><g id="Layer_2" fill="#000" transform="translate(-1 -1)"><path id="Shape" d="m31 5c-3.3137085 0-6 2.6862915-6 6s2.6862915 6 6 6 6-2.6862915 6-6-2.6862915-6-6-6zm0 10c-2.209139 0-4-1.790861-4-4s1.790861-4 4-4 4 1.790861 4 4c0 1.060866-.4214274 2.0782816-1.1715729 2.8284271s-1.7675611 1.1715729-2.8284271 1.1715729z"/><path id="Shape" d="m35 46h-1v-1c0-1.1045695-.8954305-2-2-2h-2c-1.1045695 0-2 .8954305-2 2v1h-1c-1.1045695 0-2 .8954305-2 2v2c0 1.1045695.8954305 2 2 2h1v1c0 1.1045695.8954305 2 2 2h2c1.1045695 0 2-.8954305 2-2v-1h1c1.1045695 0 2-.8954305 2-2v-2c0-1.1045695-.8954305-2-2-2zm0 4h-2c-.5522847 0-1 .4477153-1 1v2h-2v-2c0-.5522847-.4477153-1-1-1h-2v-2h2c.5522847 0 1-.4477153 1-1v-2h2v2c0 .5522847.4477153 1 1 1h2z"/><path id="Shape" d="m58 14c1 0 1.45-.63 2.4-1.58.3786253-.3755332.5915966-.8867249.5915966-1.42s-.2129713-1.0444668-.5915966-1.42l-1-1c-.3725213-.36948833-.8753202-.57779076-1.4-.58h-17.46c-1.4803279-4.71048024-6.1771061-7.63541648-11.057531-6.88611889-4.880425.74929758-8.4834242 4.94850877-8.482469 9.88611889v19.28l-.95-1-.22-1.92c-.1056711-.9247254-.8352746-1.6543289-1.76-1.76l-1.47-.17-.17-1.43c-.1056711-.9247254-.8352746-1.6543289-1.76-1.76l-1.47-.17-.2-1.45c-.1031058-.935255-.844179-1.6721649-1.78-1.77l-1.45-.16-.16-1.45c-.10132447-.9286189-.83197008-1.6634159-1.76-1.77l-1.43-.17-.1-1c-.13391133-.9743584-.79264268-1.7962047-1.71448025-2.1390196-.92183756-.3428149-1.95750033-.1510834-2.69551975.4990196-.55934846.4796675-.88988078 1.1734222-.91 1.91-.09641277 3.7398699.78973504 7.4396232 2.57 10.73 2.66 4.88 2.07 3.75 17.43 19.11v.59h-7c-1.1045695 0-2 .8954305-2 2h-4c0-1.1045695-.8954305-2-2-2h-3c-1.1045695 0-2 .8954305-2 2 0 3.3137085 2.6862915 6 6 6h14.2c1.0223435 5.0347855 5.6934688 8.4757374 10.8049921 7.9594219s9.0001711-4.8218909 8.9950079-9.9594219v-19.93l6.36 6.37c2.7148487 2.7103066 5.9404546 4.8550455 9.49 6.31 1.1143851.4460619 2.3873844.184927 3.2361557-.6638443s1.1099062-2.1217706.6638443-3.2361557c-1.4549545-3.5495454-3.5996934-6.7751513-6.31-9.49l-13.44-13.43v-2.93zm0-4 1 1-1 1h-17c.0341404-.6662296.0341404-1.3337704 0-2zm-52.67 14.35c-1.61756099-2.9824767-2.42117471-6.33834-2.33-9.73.04126923-.3359096.32656479-.5882993.665-.5882993s.62373077.2523897.665.5882993l.1.94c.12372699.9124186.85441146 1.6224622 1.77 1.72l1.47.18.16 1.45c.10310576.935255.84417899 1.6721649 1.78 1.77l1.45.16.16 1.46c.1031058.935255.844179 1.6721649 1.78 1.77l1.47.16.17 1.49c.1142757.916931.8418229 1.6362106 1.76 1.74l1.47.17.26 2.27c.05.48.07.38 2.89 3.2v8.49c-13.94-13.93-13.29-12.82-15.69-17.24zm1.67 26.65c-2.209139 0-4-1.790861-4-4h3c0 1.1045695.8954305 2 2 2h4c1.1045695 0 2-.8954305 2-2h7v4zm32 0c0 4.418278-3.581722 8-8 8s-8-3.581722-8-8v-40c0-4.418278 3.581722-8 8-8s8 3.581722 8 8zm14-19.22c2.4667856 2.4621147 4.4270704 5.3838563 5.77 8.6l-15-15c-.2443899-.2853762-.6281184-.4096819-.993419-.3218101-.3653005.0878718-.6505193.3730906-.7383911.7383911-.0878718.3653006.0364339.7490291.3218101.993419l15 15c-3.2100584-1.3522977-6.1247374-3.3191965-8.58-5.79l-7.78-7.75v-8.5z"/><path id="Shape" d="m26 22c.5522847 0 1-.4477153 1-1v-2c0-.5522847-.4477153-1-1-1s-1 .4477153-1 1v2c0 .5522847.4477153 1 1 1z"/><path id="Shape" d="m26 42c.5522847 0 1-.4477153 1-1v-16c0-.5522847-.4477153-1-1-1s-1 .4477153-1 1v16c0 .5522847.4477153 1 1 1z"/></g></g></svg>